<svg xmlns="http://www.w3.org/2000/svg" xmlns:xlink="http://www.w3.org/1999/xlink" width="1080" zoomAndPan="magnify" viewBox="0 0 810 809.999993" height="1080" preserveAspectRatio="xMidYMid meet" version="1.2"><defs><clipPath id="1a39f47a34"><path d="M 7.398438 5.21875 L 802.398438 5.21875 L 802.398438 801 L 7.398438 801 Z M 7.398438 5.21875 "/></clipPath></defs><g id="73bcf8c3b7"><g clip-rule="nonzero" clip-path="url(#1a39f47a34)"><path style=" stroke:none;fill-rule:nonzero;fill:#3c7f72;fill-opacity:1;" d="M 18.90625 735.09375 C 29.816406 757.113281 40.742188 779.070312 51.960938 800.789062 L 7.398438 800.789062 L 7.398438 711.152344 C 11.269531 719.398438 15.097656 727.40625 18.90625 735.09375 Z M 198.113281 411.082031 C 179.957031 391.476562 141.710938 381.988281 117.355469 374.558594 C 81.238281 363.53125 44.371094 355.449219 7.398438 347.773438 L 7.398438 368.269531 C 19.867188 371.128906 32.277344 374.230469 44.597656 377.726562 C 103.859375 394.550781 144.054688 426.8125 162.0625 485.101562 C 184.515625 557.785156 168.316406 648.34375 172.335938 723.707031 C 173.90625 753.125 175.691406 774.324219 184.050781 800.789062 L 224.375 800.789062 C 225.59375 770.304688 227.988281 739.851562 229.902344 709.796875 C 234.378906 639.550781 241.488281 567.136719 230.027344 497.179688 C 225.507812 469.585938 217.933594 432.484375 198.113281 411.082031 Z M 345.792969 466.40625 C 340.246094 394.261719 296.578125 364.441406 230.992188 343.054688 C 158.125 319.296875 81.890625 307.824219 7.398438 290.011719 L 7.398438 323.410156 C 66.5 336.765625 126.121094 348.203125 183.675781 367.125 C 248.902344 388.570312 288.164062 414.070312 296.585938 485.558594 C 305.167969 558.398438 289.9375 633.753906 278.898438 705.542969 C 274.625 733.34375 268.199219 766.40625 263.464844 800.789062 L 295.425781 800.789062 C 301.878906 758.203125 312.109375 716.703125 318.589844 684.058594 C 332.617188 613.375 351.375 538.984375 345.792969 466.40625 Z M 384.667969 584.382812 C 399.160156 509.085938 421.003906 426.957031 410.453125 349.742188 C 400.027344 273.394531 341.390625 265.984375 276.902344 246.601562 C 197.714844 222.804688 94.226562 202.945312 7.398438 163.121094 L 7.398438 229.394531 C 86.914062 253.316406 169.207031 266.753906 248.875 290.128906 C 312.851562 308.902344 368.359375 327.066406 378.195312 400.289062 C 388.539062 477.300781 366.992188 559.105469 352.3125 634.164062 C 343.617188 678.628906 327.511719 740.988281 323.191406 800.789062 L 353.453125 800.789062 C 350.746094 726.84375 373.78125 640.960938 384.667969 584.382812 Z M 444.113281 501.316406 C 459.472656 427.996094 488.039062 337.707031 469.859375 262.476562 C 453.449219 194.566406 380.152344 204.570312 324.191406 185.609375 C 208.945312 146.554688 119.902344 61.496094 14.480469 5.648438 L 7.398438 5.648438 L 7.398438 79.78125 C 98.414062 134.734375 195.964844 178.894531 297.304688 211.105469 C 360.605469 231.226562 429.300781 228.5625 441.148438 306.472656 C 452.804688 383.121094 429.691406 465.988281 414.929688 540.640625 C 401.492188 608.59375 370.09375 718.6875 385.816406 800.789062 L 423.019531 800.789062 C 384.023438 717.28125 427.832031 579.015625 444.113281 501.316406 Z M 563.730469 789.210938 C 398.878906 755.96875 476.925781 540.066406 503.167969 429.730469 C 518.992188 363.1875 547.132812 282.273438 533.609375 213.441406 C 527.847656 184.117188 516.128906 170.878906 486.683594 164.707031 C 445.050781 155.980469 404.964844 158.414062 364.574219 141.199219 C 300.191406 113.757812 265.414062 60.398438 227.453125 5.648438 L 140.070312 5.648438 C 153.21875 16.261719 166.167969 28.015625 179.238281 40.894531 C 227.246094 88.21875 274.226562 134.125 337.859375 159.738281 C 395.617188 182.984375 487.847656 165.390625 501.59375 240.175781 C 514.933594 312.734375 488.761719 394.621094 473.171875 464.925781 C 452.332031 558.902344 395.785156 730.507812 478.644531 800.789062 L 802.398438 800.789062 L 802.398438 781.121094 C 723.609375 780.96875 638.792969 804.34375 563.730469 789.210938 Z M 628.144531 714.492188 C 456.777344 683.476562 540.421875 468.738281 569.84375 356.925781 C 585.449219 297.636719 620.832031 210.808594 602.5625 148.597656 C 594.046875 119.609375 577.84375 117.128906 549.765625 116.109375 C 500.355469 114.316406 450.492188 116.242188 406.050781 90.59375 C 370.4375 70.042969 352.199219 39.691406 339.96875 5.648438 L 289.535156 5.648438 C 310.039062 50.496094 334.042969 92.214844 381.164062 116.46875 C 401.589844 126.984375 423.804688 132.964844 446.3125 136.894531 C 472.503906 141.460938 505.710938 136.078125 530.304688 142.699219 C 553.105469 148.839844 562.765625 162.242188 567.359375 185.496094 C 580.449219 251.753906 550.984375 330.890625 535.042969 394.300781 C 506.789062 506.703125 426.148438 721.503906 596.941406 752.039062 C 657.539062 762.871094 731.65625 747.269531 802.402344 742.65625 L 802.402344 711.671875 C 744.6875 716.617188 685.207031 724.820312 628.144531 714.492188 Z M 719.84375 643.101562 C 656.195312 632.464844 625.800781 602.457031 623.824219 536.5625 C 621.210938 449.394531 650.546875 360.652344 671.296875 277.050781 C 687.347656 212.378906 717.050781 128.644531 699.34375 61.453125 C 691.269531 30.8125 675.398438 20.757812 645.234375 18.007812 C 603.128906 14.175781 562.492188 18.453125 522.792969 5.648438 L 400.8125 5.648438 C 411.367188 23 425.839844 38.175781 446.660156 49.867188 C 500.1875 79.917969 552.476562 64.199219 609.125 72.101562 C 631.132812 75.171875 643.417969 82.859375 649.488281 105.324219 C 666.714844 169.039062 631.152344 254.480469 614.582031 315.007812 C 592.886719 394.242188 563.320312 478.804688 564.210938 561.925781 C 564.941406 629.855469 599.476562 664.882812 665.21875 676.890625 C 710.144531 685.09375 756.585938 681.828125 802.402344 678.027344 L 802.402344 645.167969 C 773.066406 647.070312 745.050781 647.3125 719.84375 643.101562 Z M 756.859375 484.128906 C 743.546875 400.285156 769.078125 302.722656 774.820312 218.789062 C 779.53125 149.898438 787.234375 70.378906 757.488281 5.648438 L 722.214844 5.648438 C 726.691406 11.8125 730.546875 19.0625 733.640625 27.660156 C 757.8125 94.765625 736.789062 179.070312 725.011719 246.59375 C 710.820312 327.960938 690.347656 411.390625 693.429688 494.527344 C 695.980469 563.34375 718.394531 601.109375 787.566406 611.679688 C 792.441406 612.425781 797.390625 613.015625 802.402344 613.46875 L 802.402344 517.152344 C 780.789062 522.417969 761.175781 511.300781 756.859375 484.128906 Z M 785.125 5.648438 C 792.351562 21.125 797.976562 37.316406 802.398438 53.933594 L 802.398438 5.648438 Z M 7.398438 405.574219 L 7.398438 596.101562 C 86.121094 677.601562 103.570312 800.789062 103.570312 800.789062 L 154.855469 800.789062 C 154.855469 800.789062 134.484375 743.449219 134.472656 666.359375 C 135.789062 426.839844 7.398438 405.574219 7.398438 405.574219 Z M 7.398438 405.574219 "/></g></g></svg>